<svg width="48" height="48" viewBox="0 0 48 48" fill="none" xmlns="http://www.w3.org/2000/svg">
<rect width="48" height="48" rx="8" fill="#E9EDF4"/>
<path d="M29.07 19.3438L27.6558 17.9295L24.1203 21.4651L25.5345 22.8793L29.07 19.3438ZM31.1913 20.0509L17.0492 34.193C16.6587 34.5835 16.0255 34.5835 15.635 34.193L12.8065 31.3646C12.416 30.974 12.416 30.3409 12.8065 29.9504L26.9487 15.8082C27.3392 15.4177 27.9724 15.4177 28.3629 15.8082L31.1913 18.6366C31.5819 19.0272 31.5819 19.6603 31.1913 20.0509Z" fill="#1F4D8F"/>
<path opacity="0.3" fill-rule="evenodd" clip-rule="evenodd" d="M29.5 24H30.5C30.7761 24 31 24.2239 31 24.5V25.5C31 25.7761 30.7761 26 30.5 26H29.5C29.2239 26 29 25.7761 29 25.5V24.5C29 24.2239 29.2239 24 29.5 24ZM32.5 21H33.5C33.7761 21 34 21.2239 34 21.5V22.5C34 22.7761 33.7761 23 33.5 23H32.5C32.2239 23 32 22.7761 32 22.5V21.5C32 21.2239 32.2239 21 32.5 21ZM33.5 25H34.5C34.7761 25 35 25.2239 35 25.5V26.5C35 26.7761 34.7761 27 34.5 27H33.5C33.2239 27 33 26.7761 33 26.5V25.5C33 25.2239 33.2239 25 33.5 25Z" fill="#1F4D8F"/>
</svg>
