<svg width="48" height="48" viewBox="0 0 48 48" fill="none" xmlns="http://www.w3.org/2000/svg">
<rect width="48" height="48" rx="8" fill="#E9EDF4"/>
<path opacity="0.3" d="M28.5 16.5C26.8905 16.5 25.0082 18.3246 24 19.5C22.9918 18.3246 21.1095 16.5 19.5 16.5C16.651 16.5 15 18.7222 15 21.5504C15 24.6835 18 28 24 31.5C30 28 33 24.75 33 21.75C33 18.9218 31.349 16.5 28.5 16.5Z" fill="#1F4D8F"/>
<path d="M24 31.5C18 28 15 24.6835 15 21.5504C15 18.7222 16.651 16.5 19.5 16.5C21.1095 16.5 22.9918 18.3246 24 19.5V31.5Z" fill="#1F4D8F"/>
</svg>
