<svg width="48" height="48" viewBox="0 0 48 48" fill="none" xmlns="http://www.w3.org/2000/svg">
<rect width="48" height="48" rx="8" fill="#E9EDF4"/>
<path opacity="0.3" fill-rule="evenodd" clip-rule="evenodd" d="M30.5355 25.4645C32.4882 27.4171 32.4882 30.5829 30.5355 32.5355C28.5829 34.4882 25.4171 34.4882 23.4645 32.5355C21.5118 30.5829 21.5118 27.4171 23.4645 25.4645C25.4171 23.5118 28.5829 23.5118 30.5355 25.4645" fill="#1F4D8F"/>
<path opacity="0.3" fill-rule="evenodd" clip-rule="evenodd" d="M24.5355 25.4645C26.4882 27.4171 26.4882 30.5829 24.5355 32.5355C22.5829 34.4882 19.4171 34.4882 17.4645 32.5355C15.5118 30.5829 15.5118 27.4171 17.4645 25.4645C19.4171 23.5118 22.5829 23.5118 24.5355 25.4645" fill="#1F4D8F"/>
<path opacity="0.3" fill-rule="evenodd" clip-rule="evenodd" d="M22.5355 19.4645C24.4882 21.4171 24.4882 24.5829 22.5355 26.5355C20.5829 28.4882 17.4171 28.4882 15.4645 26.5355C13.5118 24.5829 13.5118 21.4171 15.4645 19.4645C17.4171 17.5118 20.5829 17.5118 22.5355 19.4645" fill="#1F4D8F"/>
<path opacity="0.3" fill-rule="evenodd" clip-rule="evenodd" d="M32.5355 19.4645C34.4882 21.4171 34.4882 24.5829 32.5355 26.5355C30.5829 28.4882 27.4171 28.4882 25.4645 26.5355C23.5118 24.5829 23.5118 21.4171 25.4645 19.4645C27.4171 17.5118 30.5829 17.5118 32.5355 19.4645Z" fill="#1F4D8F"/>
<path opacity="0.3" fill-rule="evenodd" clip-rule="evenodd" d="M27.5355 15.4645C29.4882 17.4171 29.4882 20.5829 27.5355 22.5355C25.5829 24.4882 22.4171 24.4882 20.4645 22.5355C18.5118 20.5829 18.5118 17.4171 20.4645 15.4645C22.4171 13.5118 25.5829 13.5118 27.5355 15.4645" fill="#1F4D8F"/>
</svg>
