<svg width="48" height="48" viewBox="0 0 48 48" fill="none" xmlns="http://www.w3.org/2000/svg">
<rect width="48" height="48" rx="8" fill="#E9EDF4"/>
<path opacity="0.3" fill-rule="evenodd" clip-rule="evenodd" d="M29 24.9175V32.5004C29 33.3289 28.3284 34.0004 27.5 34.0004C26.6716 34.0004 26 33.3289 26 32.5004V23.4727C26.8262 24.2121 27.8584 24.726 29 24.9175V24.9175Z" fill="#1F4D8F"/>
<path opacity="0.3" fill-rule="evenodd" clip-rule="evenodd" d="M22 23.4727V32.5004C22 33.3289 21.3284 34.0004 20.5 34.0004C19.6716 34.0004 19 33.3289 19 32.5004V24.9175C20.1416 24.726 21.1738 24.2121 22 23.4727Z" fill="#1F4D8F"/>
<path fill-rule="evenodd" clip-rule="evenodd" d="M30 24C27.2386 24 25 21.7614 25 19C25 16.2386 27.2386 14 30 14C32.7614 14 35 16.2386 35 19C35 21.7614 32.7614 24 30 24ZM26.75 18.5C26.3358 18.5 26 18.8358 26 19.25C26 19.6642 26.3358 20 26.75 20H27.25C27.6642 20 28 19.6642 28 19.25C28 18.8358 27.6642 18.5 27.25 18.5H26.75ZM33 17C32.4477 17 32 17.4477 32 18V20C32 20.5523 32.4477 21 33 21C33.5523 21 34 20.5523 34 20V18C34 17.4477 33.5523 17 33 17Z" fill="#1F4D8F"/>
<path fill-rule="evenodd" clip-rule="evenodd" d="M18 24C15.2386 24 13 21.7614 13 19C13 16.2386 15.2386 14 18 14C20.7614 14 23 16.2386 23 19C23 21.7614 20.7614 24 18 24ZM20.75 18.5C20.3358 18.5 20 18.8358 20 19.25C20 19.6642 20.3358 20 20.75 20H21.25C21.6642 20 22 19.6642 22 19.25C22 18.8358 21.6642 18.5 21.25 18.5H20.75ZM15 17C14.4477 17 14 17.4477 14 18V20C14 20.5523 14.4477 21 15 21C15.5523 21 16 20.5523 16 20V18C16 17.4477 15.5523 17 15 17Z" fill="#1F4D8F"/>
</svg>
