<svg width="380" height="380" viewBox="0 0 380 380" fill="none" xmlns="http://www.w3.org/2000/svg">
<path d="M363.6 239.3L362.4 243.4L327.3 232.9L321.7 251.6L317.9 250.5L324.7 227.7L363.6 239.3Z" fill="white"/>
<path d="M344.9 273.199L346.7 269.499L352 271.999L350.2 275.699L344.9 273.199ZM313.5 258.299L315.3 254.599L339.7 266.199L337.9 269.899L313.5 258.299Z" fill="white"/>
<path d="M331 276L334 277.9L331.1 282.6L335.5 285.3C340.2 288.3 341.9 292.6 338.7 297.6C337.9 298.9 337 299.9 336.4 300.4L333.4 298.6C333.9 298.1 334.6 297.3 335.2 296.4C337.3 293.1 336 290.5 333 288.6L328.9 286L324.5 293L321.5 291.1L325.9 284.1L306 271.6L308.2 268.2L328.1 280.7L331 276Z" fill="white"/>
<path d="M289.6 302.3C287.5 297.6 288.2 293 291.6 289.2C297 283.1 305.2 283.2 311.3 288.6C317.3 293.9 318.8 301.9 313.6 307.8C309.1 312.8 301.7 314.2 294.6 308.2L293.6 307.3L308 291.1C303.4 287.6 297.9 287.3 294.2 291.5C291.9 294.2 291.3 297.2 292.7 300.5L289.6 302.3ZM310.1 293L298.6 306C303.7 310.1 308.4 308.7 311.2 305.6C314.5 301.8 313.9 297.1 310.1 293Z" fill="white"/>
<path d="M284.8 341.899L288.2 339.599L291.5 344.499L288.1 346.799L284.8 341.899ZM265.2 313.299L268.6 310.999L283.8 333.199L280.4 335.499L265.2 313.299Z" fill="white"/>
<path d="M262.3 322.899L259.3 325.199C257.3 322.799 254 322.399 250.9 323.999C247.4 325.699 246.8 328.599 248 331.099C251.4 337.799 262.8 325.999 267.6 335.599C269.7 339.799 267.6 344.299 262.7 346.699C258.1 348.999 253.1 348.199 250.7 344.899L253.8 342.499C255.3 344.799 258.4 345.299 261.3 343.899C264.6 342.299 265.2 339.699 264.2 337.699C260.9 331.199 249.3 342.699 244.6 333.199C242.2 328.499 244.5 323.799 249.7 321.199C254.4 318.799 259.4 319.399 262.3 322.899Z" fill="white"/>
<path d="M216.7 333.5L220.7 332.6L225.6 355.6L231 354.4L231.7 357.9L226.3 359.1L228.1 367.7L224.1 368.6L222.3 360L213.7 361.8L213 358.3L221.6 356.5L216.7 333.5Z" fill="white"/>
<path d="M194.6 364.199C186.9 364.499 180.9 358.899 180.5 350.299C180.2 341.799 185.7 335.699 193.5 335.399C201.3 335.099 207.2 340.799 207.5 349.299C207.8 357.899 202.3 363.899 194.6 364.199ZM193.6 339.099C187.8 339.299 184.3 344.199 184.6 350.199C184.8 356.299 188.7 360.799 194.5 360.599C200.2 360.399 203.7 355.699 203.5 349.499C203.2 343.399 199.3 338.899 193.6 339.099Z" fill="white"/>
<path d="M158.7 361.699C151.1 360.399 146.4 353.599 147.9 345.199C149.4 336.899 156.1 331.999 163.7 333.399C171.4 334.799 175.9 341.599 174.4 349.899C173 358.399 166.4 363.099 158.7 361.699ZM163.1 336.999C157.4 335.999 153 339.999 151.9 345.899C150.8 351.999 153.6 357.099 159.3 358.099C164.9 359.099 169.4 355.199 170.4 349.199C171.5 343.299 168.7 337.999 163.1 336.999Z" fill="white"/>
<path d="M131.4 331.699L127.7 330.699C128.4 327.699 126.8 324.799 123.7 323.299C120.2 321.499 117.6 322.699 116.3 325.299C112.9 331.999 129.3 334.099 124.4 343.699C122.3 347.899 117.5 348.899 112.6 346.399C108 344.099 105.6 339.599 106.8 335.699L110.6 336.699C109.6 339.299 111.1 342.099 114 343.499C117.3 345.099 119.7 344.099 120.7 342.099C124 335.599 107.8 333.099 112.6 323.699C115 318.999 120.1 317.999 125.3 320.599C130.1 322.999 132.5 327.299 131.4 331.699Z" fill="white"/>
<path d="M86.3 346L83.1 343.5L94 329.4C90.9 330.9 87 330.4 83.9 328C79.3 324.4 78.9 318.9 82.9 313.7L93.5 300.1L96.7 302.6L86.7 315.5C83.6 319.5 83.7 323.2 86.9 325.7C90.5 328.5 95.5 327.7 98.5 323.8L108.1 311.5L111.3 314L86.3 346Z" fill="white"/>
<path d="M59.8002 304.499C54.8002 298.599 55.5002 290.399 62.1002 284.899C68.6002 279.399 76.8002 280.099 81.8002 285.999C86.8002 291.999 85.9002 300.099 79.5002 305.599C72.9002 311.099 64.8002 310.499 59.8002 304.499ZM79.0002 288.399C75.3002 283.999 69.3002 284.199 64.7002 288.099C60.0002 292.099 58.8002 297.799 62.6002 302.199C66.3002 306.599 72.2002 306.399 76.9002 302.499C81.5002 298.599 82.7002 292.699 79.0002 288.399Z" fill="white"/>
<path d="M46.2 284.4L44.3 281.1L48.2 278.9L48.1 278.7C44.6 279.1 41.4 277.5 39.8 274.6C39.4 273.8 39.1 273.1 39 272.4L42.4 270.4C42.5 271 42.8 271.7 43.2 272.5C45.4 276.4 50.3 277.3 55.6 274.2L67.5 267.3L69.5 270.8L46.2 284.4Z" fill="white"/>
<path d="M58.3001 248.5L59.8001 252.3L38 261.1L40.1 266.2L36.8 267.5L34.7 262.4L26.6 265.7L25.1 261.9L33.2 258.6L29.9 250.5L33.2 249.2L36.5 257.3L58.3001 248.5Z" fill="white"/>
<path d="M49.9 217.6L50.5 221.6L27.3 225.2L28.1 230.6L24.6 231.1L23.8 225.7L15.1 227L14.5 223L23.2 221.7L21.9 213L25.4 212.5L26.7 221.2L49.9 217.6Z" fill="white"/>
<path d="M20.5001 193.699C20.6001 185.999 26.5001 180.299 35.1001 180.399C43.6001 180.499 49.4001 186.499 49.2001 194.199C49.1001 201.999 43.0001 207.499 34.6001 207.399C26.1001 207.199 20.4001 201.499 20.5001 193.699ZM45.6001 194.099C45.7001 188.299 41.1001 184.599 35.0001 184.499C28.9001 184.399 24.2001 187.999 24.1001 193.799C24.0001 199.499 28.5001 203.299 34.7001 203.399C40.8001 203.399 45.5001 199.799 45.6001 194.099Z" fill="white"/>
<path d="M26.8 154L27.9 150.3L32.2 151.6L32.3 151.4C29.6 149.2 28.6 145.7 29.5 142.5C29.7 141.7 30.1 141 30.5 140.4L34.3001 141.5C33.9001 142 33.6001 142.7 33.3001 143.6C32.0001 147.9 34.7 152.1 40.6 153.8L53.8 157.7L52.6 161.6L26.8 154Z" fill="white"/>
<path d="M62.5 121.3C65.7 125.3 66.3 129.9 64 134.5C60.4 141.8 52.4001 143.9 45.2001 140.3C38.0001 136.7 34.5 129.4 38 122.3C41 116.3 47.8001 113.1 56.2001 116.9L57.4 117.5L47.8001 136.9C53.2001 139.1 58.5 137.9 61 132.9C62.6 129.7 62.3 126.7 60.1 123.8L62.5 121.3ZM45.1 135.6L52.8001 120.1C46.8001 117.5 42.6001 120 40.8001 123.7C38.5001 128.3 40.4 132.7 45.1 135.6Z" fill="white"/>
<path d="M56.4001 93.1004C59.0001 89.8004 62.7001 88.2004 66.1001 88.6004L63.0001 86.1004L65.5001 82.9004L86.6001 99.8004L84.2001 102.7L80.5001 99.7004L80.4001 99.8004C82.1001 103.6 81.4001 107.6 78.7001 111C74.0001 116.9 66.1001 117.3 59.5001 112C52.9001 106.8 51.7001 98.9004 56.4001 93.1004ZM76.3001 108.3C79.8001 104 78.5001 98.5004 73.6001 94.6004C68.7001 90.6004 63.0001 90.6004 59.5001 94.9004C55.9001 99.4004 57.4001 105.2 62.1001 108.9C67.0001 112.8 72.9001 112.6 76.3001 108.3Z" fill="white"/>
<path d="M82.8001 66.2997C86.1001 63.6997 90.0001 62.9997 93.3001 64.0997L82.4 50.3997L85.6 47.8997L110.8 79.6997L107.8 81.9997L104.8 78.2997L104.7 78.3997C105.5 82.4997 103.9 86.1997 100.5 88.8997C94.6 93.5997 86.8 92.1997 81.6 85.6997C76.4 78.8997 77.0001 70.8997 82.8001 66.2997ZM98.9 85.5997C103.3 82.0997 103.2 76.4997 99.4 71.5997C95.4 66.5997 90 65.2997 85.6 68.7997C81.1 72.3997 81.3 78.3997 85 83.0997C88.8 87.8997 94.6 88.9997 98.9 85.5997Z" fill="white"/>
<path d="M142 65.7C138 67.2 133.8 66.7 131 64.2L130.9 64.2L132.4 68.2L128.9 69.5L115 31.4L118.8 30L125 46.8C125.6 43.1 128.1 40.1 132.1 38.6C139.2 36 146.3 39.7 149.2 47.7C152 55.7 149 63.1 142 65.7ZM132.8 42.3C127.5 44.2 125.7 49.5 128 55.6C130.2 61.5 134.9 64.4 140.2 62.5C145.6 60.5 147.3 54.8 145.3 49.3C143.2 43.6 138.2 40.3 132.8 42.3Z" fill="white"/>
<path d="M165.6 30.5999C169.7 30.0999 173.5 31.5 175.7 34.2L175.2 30.3L179.2 29.8L182.6 56.5999L178.9 57.0999L178.3 52.4L178.2 52.4C176.8 56.3 173.5 58.7 169.2 59.2C161.7 60.1 155.7 54.8999 154.7 46.5999C153.6 37.9999 158.2 31.4999 165.6 30.5999ZM169.3 55.4C174.8 54.7 177.7 49.9 177 43.7C176.2 37.4 172.2 33.3999 166.7 34.0999C160.9 34.7999 158 39.9999 158.8 45.9999C159.5 52.1999 163.9 56.1 169.3 55.4Z" fill="white"/>
<path d="M203.3 29.8004C207.5 30.2004 210.8 32.4004 212.3 35.5004L214 18.1004L218 18.5004L214 58.9004L210.2 58.5004L210.7 53.8004L210.6 53.8004C208.3 57.3004 204.6 58.9004 200.3 58.4004C192.8 57.7004 188.1 51.3004 189 42.9004C189.9 34.3004 195.9 29.0004 203.3 29.8004ZM201.4 54.8004C206.9 55.3004 210.8 51.3004 211.5 45.1004C212.1 38.7004 209.1 34.0004 203.6 33.5004C197.8 32.9004 193.8 37.4004 193.2 43.3004C192.6 49.5004 196 54.3004 201.4 54.8004Z" fill="white"/>
<path d="M246.2 70.5996C242.3 68.8996 239.7 65.5996 239.4 61.8996L239.3 61.8996L237.5 65.7996L234.1 64.2996L250.7 27.1996L254.4 28.8996L247.1 45.2996C250.1 43.0996 253.9 42.5996 257.9 44.3996C264.8 47.4996 267.3 54.9996 263.8 62.8996C260.3 70.3996 253 73.5996 246.2 70.5996ZM255.9 47.3996C250.8 45.0996 245.8 47.6996 243.2 53.4996C240.6 59.1996 242 64.6996 247.2 66.9996C252.5 69.3996 257.7 66.3996 260.1 61.0996C262.4 55.5996 261.1 49.6996 255.9 47.3996Z" fill="white"/>
<path d="M288 62.1C294.2 66.7 295.4 74.8001 290.3 81.7001C285.2 88.5001 277.1 89.8001 270.9 85.2001C264.7 80.6001 263.6 72.4 268.7 65.6C273.7 58.7 281.8 57.5 288 62.1ZM273 82.3001C277.7 85.8001 283.4 84.2001 287 79.3001C290.7 74.4001 290.5 68.5 285.8 65C281.2 61.6 275.5 63.1 271.9 68C268.3 72.9 268.4 78.9001 273 82.3001Z" fill="white"/>
<path d="M314.4 86.5003C319.5 92.3003 318.9 100.5 312.5 106.1C306.1 111.7 297.8 111.2 292.8 105.4C287.7 99.5003 288.4 91.4003 294.8 85.8003C301.2 80.2003 309.3 80.7003 314.4 86.5003ZM295.5 103C299.3 107.4 305.3 107 309.8 103.1C314.4 99.1003 315.5 93.3003 311.7 88.9003C308 84.6003 302.1 84.8003 297.4 88.9003C292.8 92.9003 291.7 98.7003 295.5 103Z" fill="white"/>
<path d="M307.2 123.399L305.2 119.799L340.5 99.6988L342.5 103.299L320.6 115.799L336.8 120.799L339.3 125.099L322 119.599L316.5 139.799L313.9 135.199L318.8 116.899L307.2 123.399Z" fill="white"/>
<path d="M322.6 138.9L324.5 142.2C321.9 143.9 321.1 147.1 322.3 150.4C323.6 154.1 326.3 155.1 329 154.1C336.1 151.6 325.8 138.8 335.9 135.2C340.3 133.6 344.5 136.2 346.3 141.4C348 146.3 346.6 151.1 343 153.1L341 149.8C343.5 148.6 344.4 145.5 343.3 142.5C342.1 139.1 339.6 138.1 337.5 138.9C330.6 141.3 340.6 154.3 330.5 157.8C325.5 159.5 321.1 156.7 319.2 151.2C317.5 146.1 318.8 141.2 322.6 138.9Z" fill="white"/>
<path d="M324.7 167.299L330.9 166.099L331.8 170.499L325.6 171.699L324.7 167.299Z" fill="white"/>
</svg>
